<?xml version="1.0" encoding="UTF-8"?>
<svg xmlns="http://www.w3.org/2000/svg" viewBox="0 0 1450 720">
  <defs>
    <style>
      .cls-1 {
        fill: none;
        stroke: #3f3;
        stroke-miterlimit: 10;
        stroke-width: 2px;
      }
    </style>
  </defs>
  <g id="Layer_2" data-name="Layer 2">
    <path class="cls-1" d="M129.03,244.57h218.5l193.35,84.97c32.23,0,32.23-261.95,0-261.95l-193.35,84.97h-218.5c-8.81,0-8.81,92,0,92Z"/>
    <path class="cls-1" d="M129.03,244.57h-23.83c-9.19,0-9.19-92,0-92h23.83"/>
    <path class="cls-1" d="M543.29,67.6c-33.03,0-33.03,261.95,0,261.95"/>
    <path class="cls-1" d="M122.43,184.99h38.38c7.28,0,7.28,27.17,0,27.17h-38.38"/>
    <path class="cls-1" d="M160.8,184.99c-5.65,0-5.65,27.17,0,27.17"/>
    <path class="cls-1" d="M181.67,212.16h38.38c7.28,0,7.28-27.17,0-27.17h-38.38c-5.14,0-5.14,27.17,0,27.17Z"/>
    <path class="cls-1" d="M220.04,184.98c-5.65,0-5.65,27.17,0,27.17"/>
    <path class="cls-1" d="M240.91,212.16h38.38c7.28,0,7.28-27.17,0-27.17h-38.38c-5.14,0-5.14,27.17,0,27.17Z"/>
    <path class="cls-1" d="M279.28,184.99c-5.65,0-5.65,27.17,0,27.17"/>
    <polygon class="cls-1" points="335.33 214.85 335.33 188.86 335.33 172.57 311.14 183.13 301.54 183.13 301.54 214.85 335.33 231.14 335.33 214.85"/>
    <polyline class="cls-1" points="311.63 218.86 311.63 184.63 335.33 197.65"/>
    <polyline class="cls-1" points="353.17 201.88 363.25 201.88 386.96 190.63"/>
    <polyline class="cls-1" points="364.06 196.58 386.17 185.98 386.17 191.28"/>
    <polyline class="cls-1" points="368.46 199.56 386.17 207.31 386.96 212.49 363.25 201.88 353.17 201.88 353.78 196.58 364.06 196.58 363.25 201.88"/>
  </g>
  <g id="Layer_3" data-name="Layer 3">
    <path class="cls-1" d="M124.96,572.58h218.5l193.35,84.97c32.23,0,32.23-261.95,0-261.95l-193.35,84.97H124.96c-8.81,0-8.81,92,0,92Z"/>
    <path class="cls-1" d="M124.96,572.58h-23.83c-9.19,0-9.19-92,0-92h23.83"/>
    <path class="cls-1" d="M539.21,395.6c-33.03,0-33.03,261.95,0,261.95"/>
    <path class="cls-1" d="M118.35,512.99h38.38c7.28,0,7.28,27.17,0,27.17h-38.38"/>
    <path class="cls-1" d="M156.73,512.99c-5.65,0-5.65,27.17,0,27.17"/>
    <path class="cls-1" d="M177.59,540.16h38.38c7.28,0,7.28-27.17,0-27.17h-38.38c-5.14,0-5.14,27.17,0,27.17Z"/>
    <path class="cls-1" d="M215.97,512.99c-5.65,0-5.65,27.17,0,27.17"/>
    <path class="cls-1" d="M236.84,540.16h38.38c7.28,0,7.28-27.17,0-27.17h-38.38c-5.14,0-5.14,27.17,0,27.17Z"/>
    <path class="cls-1" d="M275.21,512.99c-5.65,0-5.65,27.17,0,27.17"/>
    <polygon class="cls-1" points="331.26 542.85 331.26 516.86 331.26 500.57 307.07 511.13 297.47 511.13 297.47 542.85 331.26 559.15 331.26 542.85"/>
    <polyline class="cls-1" points="307.55 546.87 307.55 512.64 331.26 525.65"/>
    <polyline class="cls-1" points="349.07 529.86 359.15 529.86 382.86 518.61"/>
    <polyline class="cls-1" points="359.96 524.56 382.07 513.95 382.07 519.26"/>
    <polyline class="cls-1" points="359.15 529.86 359.96 524.56 349.68 524.56 349.07 529.86 359.15 529.86 382.86 540.46 382.07 535.29 364.35 527.53"/>
  </g>
  <g id="Layer_4" data-name="Layer 4">
    <line class="cls-1" x1="98.34" y1="199.23" x2="363.66" y2="199.23"/>
    <line class="cls-1" x1="94.24" y1="527.21" x2="359.56" y2="527.21"/>
  </g>
</svg>